<svg width="512" height="512" viewBox="0 0 512 512" fill="none" xmlns="http://www.w3.org/2000/svg">
<path d="M512 256C512 397.385 397.385 512 256 512C114.615 512 0 397.385 0 256C0 114.615 114.615 0 256 0C397.385 0 512 114.615 512 256Z" fill="#22C55E"/>
<path d="M496 256C496 388.548 388.548 496 256 496C123.452 496 16 388.548 16 256C16 123.452 123.452 16 256 16C388.548 16 496 123.452 496 256Z" fill="#D9D9D9"/>
<path d="M480 256C480 379.712 379.712 480 256 480C132.288 480 32 379.712 32 256C32 132.288 132.288 32 256 32C379.712 32 480 132.288 480 256Z" fill="#22C55E"/>
<path d="M261.8 401.8C227.933 401.8 199.933 393.933 177.8 378.2C155.933 362.2 144.067 338.867 142.2 308.2H236.6C237.933 324.467 245.133 332.6 258.2 332.6C263 332.6 267 331.533 270.2 329.4C273.667 327 275.4 323.4 275.4 318.6C275.4 311.933 271.8 306.6 264.6 302.6C257.4 298.333 246.2 293.533 231 288.2C212.867 281.8 197.8 275.533 185.8 269.4C174.067 263.267 163.933 254.333 155.4 242.6C146.867 230.867 142.733 215.8 143 197.4C143 179 147.667 163.4 157 150.6C166.6 137.533 179.533 127.667 195.8 121C212.333 114.333 230.867 111 251.4 111C286.067 111 313.533 119 333.8 135C354.333 151 365.133 173.533 366.2 202.6H270.6C270.333 194.6 268.333 188.867 264.6 185.4C260.867 181.933 256.333 180.2 251 180.2C247.267 180.2 244.2 181.533 241.8 184.2C239.4 186.6 238.2 190.067 238.2 194.6C238.2 201 241.667 206.333 248.6 210.6C255.8 214.6 267.133 219.533 282.6 225.4C300.467 232.067 315.133 238.467 326.6 244.6C338.333 250.733 348.467 259.267 357 270.2C365.533 281.133 369.8 294.867 369.8 311.4C369.8 328.733 365.533 344.333 357 358.2C348.467 371.8 336.067 382.467 319.8 390.2C303.533 397.933 284.2 401.8 261.8 401.8Z" fill="white"/>
</svg>
